<?xml version="1.0" encoding="UTF-8" standalone="no"?>
<!DOCTYPE svg PUBLIC "-//W3C//DTD SVG 1.1//EN"
 "http://www.w3.org/Graphics/SVG/1.1/DTD/svg11.dtd">
<!-- Generated by graphviz version 2.40.1 (20161225.0304)
 -->
<!-- Title: dependencies Pages: 1 -->
<svg width="532pt" height="284pt"
 viewBox="0.00 0.00 532.00 284.00" xmlns="http://www.w3.org/2000/svg" xmlns:xlink="http://www.w3.org/1999/xlink">
<g id="graph0" class="graph" transform="scale(1 1) rotate(0) translate(4 280)">
<title>dependencies</title>
<polygon fill="#ffffff" stroke="transparent" points="-4,4 -4,-280 528,-280 528,4 -4,4"/>
<text text-anchor="start" x="241.0091" y="-42.4" font-family="sans-serif" font-weight="bold" font-size="14.00" fill="#000000">Legend</text>
<polygon fill="#ffffb3" stroke="transparent" points="28,-10 28,-30 48,-30 48,-10 28,-10"/>
<text text-anchor="start" x="51.629" y="-15.4" font-family="sans-serif" font-size="14.00" fill="#000000"> &#160;Declarations</text>
<polygon fill="#8dd3c7" stroke="transparent" points="141,-10 141,-30 161,-30 161,-10 141,-10"/>
<text text-anchor="start" x="164.7251" y="-15.4" font-family="sans-serif" font-size="14.00" fill="#000000"> &#160;Module</text>
<polygon fill="#80b1d3" stroke="transparent" points="227,-10 227,-30 247,-30 247,-10 227,-10"/>
<text text-anchor="start" x="250.7812" y="-15.4" font-family="sans-serif" font-size="14.00" fill="#000000"> &#160;Bootstrap</text>
<polygon fill="#fdb462" stroke="transparent" points="324,-10 324,-30 344,-30 344,-10 324,-10"/>
<text text-anchor="start" x="347.6732" y="-15.4" font-family="sans-serif" font-size="14.00" fill="#000000"> &#160;Providers</text>
<polygon fill="#fb8072" stroke="transparent" points="420,-10 420,-30 440,-30 440,-10 420,-10"/>
<text text-anchor="start" x="443.7258" y="-15.4" font-family="sans-serif" font-size="14.00" fill="#000000"> &#160;Exports</text>
<g id="clust1" class="cluster">
<title>cluster_AppModule</title>
<polygon fill="none" stroke="#000000" stroke-dasharray="1,5" points="8,-70 8,-268 148,-268 148,-70 8,-70"/>
</g>
<g id="clust2" class="cluster">
<title>cluster_AppModule_declarations</title>
<polygon fill="none" stroke="#000000" points="17,-78 17,-130 139,-130 139,-78 17,-78"/>
</g>
<g id="clust6" class="cluster">
<title>cluster_AppModule_bootstrap</title>
<polygon fill="none" stroke="#000000" points="16,-208 16,-260 140,-260 140,-208 16,-208"/>
</g>
<g id="clust8" class="cluster">
<title>cluster_NeoModalModule</title>
<polygon fill="none" stroke="#000000" stroke-dasharray="1,5" points="156,-70 156,-268 516,-268 516,-70 156,-70"/>
</g>
<g id="clust9" class="cluster">
<title>cluster_NeoModalModule_declarations</title>
<polygon fill="none" stroke="#000000" points="350,-78 350,-130 508,-130 508,-78 350,-78"/>
</g>
<g id="clust12" class="cluster">
<title>cluster_NeoModalModule_exports</title>
<polygon fill="none" stroke="#000000" points="348,-208 348,-260 508,-260 508,-208 348,-208"/>
</g>
<g id="clust14" class="cluster">
<title>cluster_NeoModalModule_providers</title>
<polygon fill="none" stroke="#000000" points="164,-78 164,-130 342,-130 342,-78 164,-78"/>
</g>
<!-- AppComponent -->
<g id="node1" class="node">
<title>AppComponent</title>
<polygon fill="#ffffb3" stroke="#000000" points="130.9399,-122 25.0601,-122 25.0601,-86 130.9399,-86 130.9399,-122"/>
<text text-anchor="middle" x="78" y="-99.8" font-family="Times,serif" font-size="14.00" fill="#000000">AppComponent</text>
</g>
<!-- AppModule -->
<g id="node2" class="node">
<title>AppModule</title>
<polygon fill="#8dd3c7" stroke="#000000" points="119.6571,-187 116.6571,-191 95.6571,-191 92.6571,-187 36.3429,-187 36.3429,-151 119.6571,-151 119.6571,-187"/>
<text text-anchor="middle" x="78" y="-164.8" font-family="Times,serif" font-size="14.00" fill="#000000">AppModule</text>
</g>
<!-- AppComponent&#45;&gt;AppModule -->
<g id="edge1" class="edge">
<title>AppComponent&#45;&gt;AppModule</title>
<path fill="none" stroke="#000000" d="M78,-122.1061C78,-122.1061 78,-140.991 78,-140.991"/>
<polygon fill="#000000" stroke="#000000" points="74.5001,-140.9909 78,-150.991 81.5001,-140.991 74.5001,-140.9909"/>
</g>
<!-- AppComponent  -->
<g id="node3" class="node">
<title>AppComponent </title>
<polygon fill="#80b1d3" stroke="#000000" points="132.439,-252 23.561,-252 23.561,-216 132.439,-216 132.439,-252"/>
<text text-anchor="middle" x="78" y="-229.8" font-family="Times,serif" font-size="14.00" fill="#000000">AppComponent </text>
</g>
<!-- AppModule&#45;&gt;AppComponent  -->
<g id="edge2" class="edge">
<title>AppModule&#45;&gt;AppComponent </title>
<path fill="none" stroke="#000000" stroke-dasharray="1,5" d="M78,-187.1061C78,-187.1061 78,-205.991 78,-205.991"/>
<polygon fill="#000000" stroke="#000000" points="74.5001,-205.9909 78,-215.991 81.5001,-205.991 74.5001,-205.9909"/>
</g>
<!-- NeoModalComponent -->
<g id="node4" class="node">
<title>NeoModalComponent</title>
<polygon fill="#ffffb3" stroke="#000000" points="499.7035,-122 358.2965,-122 358.2965,-86 499.7035,-86 499.7035,-122"/>
<text text-anchor="middle" x="429" y="-99.8" font-family="Times,serif" font-size="14.00" fill="#000000">NeoModalComponent</text>
</g>
<!-- NeoModalModule -->
<g id="node5" class="node">
<title>NeoModalModule</title>
<polygon fill="#8dd3c7" stroke="#000000" points="487.9215,-187 484.9215,-191 463.9215,-191 460.9215,-187 368.0785,-187 368.0785,-151 487.9215,-151 487.9215,-187"/>
<text text-anchor="middle" x="428" y="-164.8" font-family="Times,serif" font-size="14.00" fill="#000000">NeoModalModule</text>
</g>
<!-- NeoModalComponent&#45;&gt;NeoModalModule -->
<g id="edge3" class="edge">
<title>NeoModalComponent&#45;&gt;NeoModalModule</title>
<path fill="none" stroke="#000000" d="M447.9035,-122.1061C447.9035,-122.1061 447.9035,-140.991 447.9035,-140.991"/>
<polygon fill="#000000" stroke="#000000" points="444.4036,-140.9909 447.9035,-150.991 451.4036,-140.991 444.4036,-140.9909"/>
</g>
<!-- NeoModalComponent&#45;&gt;NeoModalModule -->
<g id="edge5" class="edge">
<title>NeoModalComponent&#45;&gt;NeoModalModule</title>
<path fill="none" stroke="#000000" d="M408.0965,-122.1061C408.0965,-122.1061 408.0965,-140.991 408.0965,-140.991"/>
<polygon fill="#000000" stroke="#000000" points="404.5966,-140.9909 408.0965,-150.991 411.5966,-140.991 404.5966,-140.9909"/>
</g>
<!-- NeoModalComponent  -->
<g id="node6" class="node">
<title>NeoModalComponent </title>
<polygon fill="#fb8072" stroke="#000000" points="500.2037,-252 355.7963,-252 355.7963,-216 500.2037,-216 500.2037,-252"/>
<text text-anchor="middle" x="428" y="-229.8" font-family="Times,serif" font-size="14.00" fill="#000000">NeoModalComponent </text>
</g>
<!-- NeoModalModule&#45;&gt;NeoModalComponent  -->
<g id="edge4" class="edge">
<title>NeoModalModule&#45;&gt;NeoModalComponent </title>
<path fill="none" stroke="#000000" stroke-dasharray="5,2" d="M428,-187.1061C428,-187.1061 428,-205.991 428,-205.991"/>
<polygon fill="#000000" stroke="#000000" points="424.5001,-205.9909 428,-215.991 431.5001,-205.991 424.5001,-205.9909"/>
</g>
<!-- NeoModalService -->
<g id="node7" class="node">
<title>NeoModalService</title>
<ellipse fill="#fdb462" stroke="#000000" cx="253" cy="-104" rx="81.0802" ry="18"/>
<text text-anchor="middle" x="253" y="-99.8" font-family="Times,serif" font-size="14.00" fill="#000000">NeoModalService</text>
</g>
<!-- NeoModalService&#45;&gt;NeoModalModule -->
<g id="edge6" class="edge">
<title>NeoModalService&#45;&gt;NeoModalModule</title>
<path fill="none" stroke="#000000" d="M253,-122.1061C253,-141.3391 253,-169 253,-169 253,-169 358.2644,-169 358.2644,-169"/>
<polygon fill="#000000" stroke="#000000" points="358.2644,-172.5001 368.2644,-169 358.2644,-165.5001 358.2644,-172.5001"/>
</g>
</g>
</svg>
