<?xml version="1.0" encoding="UTF-8" standalone="no"?>
<!DOCTYPE svg PUBLIC "-//W3C//DTD SVG 1.1//EN"
 "http://www.w3.org/Graphics/SVG/1.1/DTD/svg11.dtd">
<!-- Generated by graphviz version 2.40.1 (20161225.0304)
 -->
<!-- Title: dependencies Pages: 1 -->
<svg width="504pt" height="211pt"
 viewBox="0.00 0.00 504.00 211.00" xmlns="http://www.w3.org/2000/svg" xmlns:xlink="http://www.w3.org/1999/xlink">
<g id="graph0" class="graph" transform="scale(1 1) rotate(0) translate(4 207)">
<title>dependencies</title>
<polygon fill="#ffffff" stroke="transparent" points="-4,4 -4,-207 500,-207 500,4 -4,4"/>
<text text-anchor="start" x="227.0091" y="-42.4" font-family="sans-serif" font-weight="bold" font-size="14.00" fill="#000000">Legend</text>
<polygon fill="#ffffb3" stroke="transparent" points="14,-10 14,-30 34,-30 34,-10 14,-10"/>
<text text-anchor="start" x="37.629" y="-15.4" font-family="sans-serif" font-size="14.00" fill="#000000"> &#160;Declarations</text>
<polygon fill="#8dd3c7" stroke="transparent" points="127,-10 127,-30 147,-30 147,-10 127,-10"/>
<text text-anchor="start" x="150.7251" y="-15.4" font-family="sans-serif" font-size="14.00" fill="#000000"> &#160;Module</text>
<polygon fill="#80b1d3" stroke="transparent" points="213,-10 213,-30 233,-30 233,-10 213,-10"/>
<text text-anchor="start" x="236.7812" y="-15.4" font-family="sans-serif" font-size="14.00" fill="#000000"> &#160;Bootstrap</text>
<polygon fill="#fdb462" stroke="transparent" points="310,-10 310,-30 330,-30 330,-10 310,-10"/>
<text text-anchor="start" x="333.6732" y="-15.4" font-family="sans-serif" font-size="14.00" fill="#000000"> &#160;Providers</text>
<polygon fill="#fb8072" stroke="transparent" points="406,-10 406,-30 426,-30 426,-10 406,-10"/>
<text text-anchor="start" x="429.7258" y="-15.4" font-family="sans-serif" font-size="14.00" fill="#000000"> &#160;Exports</text>
<g id="clust1" class="cluster">
<title>cluster_NeoModalModule</title>
<polygon fill="none" stroke="#000000" stroke-dasharray="1,5" points="68,-70 68,-195 428,-195 428,-70 68,-70"/>
</g>
<g id="clust2" class="cluster">
<title>cluster_NeoModalModule_declarations</title>
<polygon fill="none" stroke="#000000" points="262,-78 262,-130 420,-130 420,-78 262,-78"/>
</g>
<g id="clust7" class="cluster">
<title>cluster_NeoModalModule_providers</title>
<polygon fill="none" stroke="#000000" points="76,-78 76,-130 254,-130 254,-78 76,-78"/>
</g>
<!-- NeoModalComponent -->
<g id="node1" class="node">
<title>NeoModalComponent</title>
<polygon fill="#ffffb3" stroke="#000000" points="411.7035,-122 270.2965,-122 270.2965,-86 411.7035,-86 411.7035,-122"/>
<text text-anchor="middle" x="341" y="-99.8" font-family="Times,serif" font-size="14.00" fill="#000000">NeoModalComponent</text>
</g>
<!-- NeoModalModule -->
<g id="node2" class="node">
<title>NeoModalModule</title>
<polygon fill="#8dd3c7" stroke="#000000" points="312.9215,-187 309.9215,-191 288.9215,-191 285.9215,-187 193.0785,-187 193.0785,-151 312.9215,-151 312.9215,-187"/>
<text text-anchor="middle" x="253" y="-164.8" font-family="Times,serif" font-size="14.00" fill="#000000">NeoModalModule</text>
</g>
<!-- NeoModalComponent&#45;&gt;NeoModalModule -->
<g id="edge1" class="edge">
<title>NeoModalComponent&#45;&gt;NeoModalModule</title>
<path fill="none" stroke="#000000" d="M291.5544,-122.1061C291.5544,-122.1061 291.5544,-140.991 291.5544,-140.991"/>
<polygon fill="#000000" stroke="#000000" points="288.0544,-140.9909 291.5544,-150.991 295.0544,-140.991 288.0544,-140.9909"/>
</g>
<!-- NeoModalService -->
<g id="node3" class="node">
<title>NeoModalService</title>
<ellipse fill="#fdb462" stroke="#000000" cx="165" cy="-104" rx="81.0802" ry="18"/>
<text text-anchor="middle" x="165" y="-99.8" font-family="Times,serif" font-size="14.00" fill="#000000">NeoModalService</text>
</g>
<!-- NeoModalService&#45;&gt;NeoModalModule -->
<g id="edge2" class="edge">
<title>NeoModalService&#45;&gt;NeoModalModule</title>
<path fill="none" stroke="#000000" d="M219.7897,-117.468C219.7897,-117.468 219.7897,-140.8642 219.7897,-140.8642"/>
<polygon fill="#000000" stroke="#000000" points="216.2898,-140.8641 219.7897,-150.8642 223.2898,-140.8642 216.2898,-140.8641"/>
</g>
</g>
</svg>
